<svg xmlns="http://www.w3.org/2000/svg" viewBox="0 0 48 48">
  <path fill="#EA4335" d="M24 9.5c3.15 0 5.98 1.08 8.21 3.2l6.15-6.15C34.9 2.5 29.9 0.5 24 0.5 14.79 0.5 6.86 5.77 3.05 13.39l7.53 5.85C12.2 13.94 17.59 9.5 24 9.5z"/>
  <path fill="#4285F4" d="M46 24.5c0-1.7-.15-3.33-.44-4.9H24v9.28h12.3c-.53 2.85-2.12 5.26-4.52 6.87l7 5.44C43.8 37.5 46 31.51 46 24.5z"/>
  <path fill="#FBBC05" d="M10.58 27.37A14.49 14.49 0 0 1 10 24.5c0-1.01.09-1.99.26-2.93l-7.53-5.85A23.45 23.45 0 0 0 0 24.5c0 3.79.9 7.36 2.48 10.53l8.1-7.66z"/>
  <path fill="#34A853" d="M24 48.5c6.49 0 11.95-2.14 15.94-5.82l-7-5.44c-2.01 1.35-4.59 2.13-8.94 2.13-6.41 0-11.8-4.44-13.42-10.35l-8.1 7.66C6.86 43.23 14.79 48.5 24 48.5z"/>
</svg>

