<svg xmlns="http://www.w3.org/2000/svg" viewBox="0 0 533.5 544.3">
  <path fill="#4285F4" d="M533.5 278.4c0-18.5-1.5-37.1-4.7-55.1H272.1v104.3h147.1c-6.3 34-25 62.8-53.6 82.1v67h86.5c50.7-46.7 81.4-115.7 81.4-198.3z"/>
  <path fill="#34A853" d="M272.1 544.3c72.6 0 133.6-24 178.2-65.5l-86.5-67c-24 16.1-54.7 25.6-91.7 25.6-70.6 0-130.5-47.6-152-111.5H31.4v69.9c44 87.5 134 148.5 240.7 148.5z"/>
  <path fill="#FBBC05" d="M120.1 325.9c-10.1-29.9-10.1-62.1 0-92l.1-69.9H31.4c-44 87.4-44 191.2 0 278.7l88.7-69.9z"/>
  <path fill="#EA4335" d="M272.1 107.7c39 0 74.2 13.4 101.8 39.7l76.3-76.3C405.6 24 344.6 0 272.1 0 165.4 0 75.4 61 31.4 148.5l88.7 69.9c21.5-63.9 81.4-110.7 152-110.7z"/>
</svg>

